<?xml version="1.0" standalone="no"?><!-- Generator: Adobe Fireworks CS6, Export SVG Extension by Aaron Beall (http://fireworks.abeall.com) . Version: 0.6.1  --><!DOCTYPE svg PUBLIC "-//W3C//DTD SVG 1.1//EN" "http://www.w3.org/Graphics/SVG/1.1/DTD/svg11.dtd"><svg id="RedQuarry-Logo-Final.fw-Logo-Medium-Light" viewBox="0 0 372 96" style="background-color:#ffffff" version="1.1"	xmlns="http://www.w3.org/2000/svg" xmlns:xlink="http://www.w3.org/1999/xlink" xml:space="preserve"	x="0px" y="0px" width="372px" height="96px">	<g id="Layer%201">		<g>			<path d="M 125.5295 77.8022 L 120.9375 52.5476 L 119.0625 52.5476 L 119.0625 77.8022 L 110.2064 77.8022 L 110.2064 17.9272 L 119.0625 17.9272 C 129.1376 17.9272 133.6476 23.8713 133.6476 35.1952 C 133.6476 41.1422 132.0896 46.519 128.7276 48.8001 L 134.3856 77.8022 L 125.5295 77.8022 L 125.5295 77.8022 ZM 119.1562 44.4009 C 120.41 44.4009 122.0818 44.238 123.4192 43.0974 C 124.7566 41.9569 125.8438 39.7573 125.8438 35.521 C 125.8438 31.2848 124.7566 29.0037 123.4192 27.8632 C 122.0818 26.7226 120.41 26.6412 119.1562 26.6412 L 119.1562 44.4009 L 119.1562 44.4009 Z" fill="#f83f26"/>			<path d="M 140.0625 17.9849 L 159.9375 17.9849 L 159.9375 27.0869 L 148.7521 27.0869 L 148.7521 42.9131 L 156.7981 42.9131 L 156.7981 52.1563 L 148.7521 52.1563 L 148.7521 68.8438 L 159.9375 68.8438 L 159.9375 77.9458 L 140.0625 77.9458 L 140.0625 17.9849 L 140.0625 17.9849 Z" fill="#f83f26"/>			<path d="M 165.2064 77.8022 L 165.2064 17.9272 L 172.1765 17.9272 C 179.7891 17.9272 184.2015 19.5536 186.5796 24.1157 C 188.8756 28.6778 189.2036 36.1728 189.2036 47.904 C 189.2036 59.6352 188.8756 67.0486 186.5796 71.6108 C 184.2015 76.1729 179.7891 77.8022 172.1765 77.8022 L 165.2064 77.8022 L 165.2064 77.8022 ZM 174.0625 69.0038 C 176.8142 69.0038 178.376 68.678 179.1941 65.7452 C 179.566 64.3602 179.8634 62.2421 179.9375 59.3908 L 179.9375 36.2542 C 179.8634 33.4844 179.566 31.3662 179.1941 29.8998 C 178.376 27.0485 176.8142 26.7226 174.0625 26.7226 L 174.0625 69.0038 L 174.0625 69.0038 Z" fill="#f83f26"/>			<path d="M 219.7936 65.8254 C 219.7936 67.223 219.5476 68.7851 219.0556 70.5116 C 218.8096 71.416 218.3996 72.2381 217.9896 73.1425 C 218.7276 74.129 219.7936 74.9512 221.5156 75.28 L 221.5156 82.8438 C 216.5135 82.8438 213.9715 80.7062 212.4135 78.1575 C 211.1835 78.5686 209.7139 78.8975 208.0002 78.8975 C 205.0625 78.8975 202.7665 78.1575 201.1264 76.8421 C 199.4864 75.6089 198.4204 74.0468 197.6824 72.4025 C 196.7804 70.5116 196.2884 68.2918 196.2064 65.8254 L 196.2064 30.2266 C 196.2884 27.8423 196.7804 25.6226 197.6824 23.7316 C 198.4204 22.0873 199.4864 20.4431 201.1264 19.2098 C 202.7665 17.9766 205.0625 17.1563 208.0002 17.1563 C 210.9375 17.1563 213.1515 17.9766 214.7915 19.2098 C 216.4315 20.4431 217.5796 22.0873 218.3176 23.7316 C 219.2196 25.6226 219.7116 27.8423 219.7936 30.2266 L 219.7936 65.8254 L 219.7936 65.8254 ZM 210.9375 30.2266 C 210.9375 28.5823 210.6116 27.4313 209.7955 26.4447 C 209.3875 26.0336 208.7347 25.787 208.0002 25.787 C 206.4498 25.787 205.7153 26.938 205.3889 28.0068 C 205.1441 28.6645 205.0625 29.4044 205.0625 30.2266 L 205.0625 65.8254 C 205.0625 67.5519 205.4705 68.7029 206.2865 69.6072 C 206.6946 70.0183 207.2658 70.265 208.0002 70.265 C 209.5507 70.265 210.2851 69.2784 210.6116 68.0452 C 210.8564 67.4697 210.9375 66.7297 210.9375 65.8254 L 210.9375 30.2266 L 210.9375 30.2266 Z" fill="#878787"/>			<path d="M 248.7936 18.0625 L 248.7936 65.9115 C 248.7116 68.3692 248.2196 70.5812 247.3176 72.4655 C 246.5796 74.104 245.4315 75.6605 243.7915 76.8894 C 242.1515 78.2002 239.9375 78.9375 237.0002 78.9375 C 234.0625 78.9375 231.7665 78.2002 230.1264 76.8894 C 228.4864 75.6605 227.4204 74.104 226.6824 72.4655 C 225.7804 70.5812 225.2884 68.3692 225.2064 65.9115 L 225.2064 18.0625 L 234.0625 18.0625 L 234.0625 65.9115 C 234.0625 67.6319 234.4705 68.7789 235.2865 69.68 C 235.6946 70.0897 236.2658 70.3354 237.0002 70.3354 C 238.5507 70.3354 239.2851 69.3523 239.6116 68.1235 C 239.8564 67.55 239.9375 66.8127 239.9375 65.9115 L 239.9375 18.0625 L 248.7936 18.0625 L 248.7936 18.0625 Z" fill="#878787"/>			<path d="M 252.9174 77.8022 L 262.0194 17.9272 L 272.9805 17.9272 L 282.0826 77.8022 L 273.4725 77.8022 L 271.8325 65.5822 L 263.1674 65.5822 L 261.5274 77.8022 L 252.9174 77.8022 L 252.9174 77.8022 ZM 268.0605 37.3948 L 267.7917 35.8469 L 267.2083 35.8469 L 266.9395 37.3948 L 264.3975 56.295 L 270.6025 56.295 L 268.0605 37.3948 L 268.0605 37.3948 Z" fill="#878787"/>			<path d="M 301.5295 77.8022 L 296.9375 52.5476 L 295.0625 52.5476 L 295.0625 77.8022 L 286.2064 77.8022 L 286.2064 17.9272 L 295.0625 17.9272 C 305.1376 17.9272 309.6476 23.8713 309.6476 35.1952 C 309.6476 41.1422 308.0896 46.519 304.7276 48.8001 L 310.3856 77.8022 L 301.5295 77.8022 L 301.5295 77.8022 ZM 295.1563 44.4009 C 296.41 44.4009 298.0818 44.238 299.4192 43.0974 C 300.7566 41.9569 301.8438 39.7573 301.8438 35.521 C 301.8438 31.2848 300.7566 29.0037 299.4192 27.8632 C 298.0818 26.7226 296.41 26.6412 295.1563 26.6412 L 295.1563 44.4009 L 295.1563 44.4009 Z" fill="#878787"/>			<path d="M 331.5295 77.8022 L 326.9375 52.5476 L 325.0625 52.5476 L 325.0625 77.8022 L 316.2064 77.8022 L 316.2064 17.9272 L 325.0625 17.9272 C 335.1376 17.9272 339.6476 23.8713 339.6476 35.1952 C 339.6476 41.1422 338.0896 46.519 334.7276 48.8001 L 340.3856 77.8022 L 331.5295 77.8022 L 331.5295 77.8022 ZM 325.1563 44.4009 C 326.41 44.4009 328.0818 44.238 329.4192 43.0974 C 330.7566 41.9569 331.8438 39.7573 331.8438 35.521 C 331.8438 31.2848 330.7566 29.0037 329.4192 27.8632 C 328.0818 26.7226 326.41 26.6412 325.1563 26.6412 L 325.1563 44.4009 L 325.1563 44.4009 Z" fill="#878787"/>			<path d="M 357.1729 37.0689 L 357.4186 37.6392 L 357.5825 37.6392 L 357.8284 37.0689 L 362.2531 17.9272 L 370.9375 17.9272 L 361.9254 52.3032 L 361.9254 77.8022 L 353.0759 77.8022 L 353.0759 52.3032 L 344.0625 17.9272 L 352.7481 17.9272 L 357.1729 37.0689 L 357.1729 37.0689 Z" fill="#878787"/>		</g>		<g>			<path d="M 55 69 L 55 55 L 69 55 L 69 69 L 55 69 Z" fill="#8d3224"/>			<path d="M 41 55 L 41 41 L 69 41 L 69 55 L 41 55 Z" fill="#c23a26"/>			<path d="M 27 41 L 27 27 L 69 27 L 69 41 L 27 41 Z" fill="#f84227"/>			<path opacity="0.6" d="M 14.7661 14.7661 C -3.5887 33.1209 -3.5887 62.879 14.7661 81.2339 C 31.669 98.1368 58.2422 99.4738 76.675 85.245 L 70.4193 78.9992 C 55.5247 89.631 34.6228 88.2172 21.2024 74.8063 C 6.289 59.9035 6.2625 35.8307 21.1432 21.0373 C 36.024 6.2439 60.1762 6.3326 75.0897 21.2353 C 88.513 34.6491 89.8749 55.492 79.162 70.3105 L 85.36 76.53 C 99.469 58.1031 98.0921 31.6243 81.2339 14.7661 C 62.8791 -3.5887 33.1209 -3.5887 14.7661 14.7661 Z" fill="#888888"/>		</g>	</g></svg>